<svg width="19" height="16" viewBox="0 0 19 16" fill="none" xmlns="http://www.w3.org/2000/svg">
<path d="M11.8253 0.336348L18.6646 7.17563C18.7709 7.28153 18.8552 7.40737 18.9127 7.54592C18.9703 7.68448 18.9999 7.83303 18.9999 7.98305C18.9999 8.13308 18.9703 8.28162 18.9127 8.42018C18.8552 8.55873 18.7709 8.68457 18.6646 8.79047L11.8253 15.6298C11.6112 15.8439 11.3207 15.9642 11.0179 15.9642C10.7151 15.9642 10.4246 15.8439 10.2105 15.6298C9.99635 15.4156 9.87605 15.1252 9.87605 14.8223C9.87604 14.5195 9.99635 14.2291 10.2105 14.0149L15.1034 9.12198L1.13988 9.12198C0.837566 9.12198 0.547633 9.00189 0.333864 8.78812C0.120094 8.57435 9.15805e-08 8.28442 9.51855e-08 7.9821C9.87906e-08 7.67979 0.120094 7.38985 0.333864 7.17608C0.547633 6.96231 0.837566 6.84222 1.13988 6.84222L15.1034 6.84222L10.2095 1.94928C9.9954 1.73514 9.87509 1.44471 9.87509 1.14187C9.87509 0.839025 9.9954 0.54859 10.2095 0.334449C10.4237 0.120309 10.7141 3.99292e-06 11.017 3.99653e-06C11.3198 4.00014e-06 11.6102 0.120309 11.8244 0.334449L11.8253 0.336348Z" fill="white"/>
</svg>
