<svg width="21" height="21" viewBox="0 0 21 21" fill="none" xmlns="http://www.w3.org/2000/svg">
<path d="M20.4506 9.86017L11.1398 0.549357C10.9662 0.374617 10.7596 0.23608 10.5321 0.141779C10.3046 0.0474774 10.0606 -0.00071088 9.81424 7.9245e-06H1.12496C0.826601 7.9245e-06 0.540466 0.118529 0.329498 0.329498C0.118529 0.540466 7.9245e-06 0.826601 7.9245e-06 1.12496V9.81424C-0.00071088 10.0606 0.0474774 10.3046 0.141779 10.5321C0.23608 10.7596 0.374617 10.9662 0.549357 11.1398L9.86017 20.4506C10.2118 20.8021 10.6886 20.9996 11.1857 20.9996C11.6829 20.9996 12.1597 20.8021 12.5113 20.4506L20.4506 12.5113C20.8021 12.1597 20.9996 11.6829 20.9996 11.1857C20.9996 10.6886 20.8021 10.2118 20.4506 9.86017ZM11.1857 18.5945L2.2499 9.65581V2.2499H9.65581L18.5916 11.1857L11.1857 18.5945ZM6.74969 5.24976C6.74969 5.54642 6.66172 5.83642 6.49691 6.08308C6.3321 6.32974 6.09784 6.52199 5.82376 6.63552C5.54969 6.74904 5.2481 6.77875 4.95714 6.72087C4.66618 6.663 4.39892 6.52014 4.18915 6.31037C3.97938 6.10061 3.83653 5.83334 3.77865 5.54239C3.72078 5.25143 3.75048 4.94984 3.86401 4.67577C3.97753 4.40169 4.16979 4.16743 4.41645 4.00262C4.66311 3.8378 4.95311 3.74983 5.24976 3.74983C5.64757 3.74983 6.02908 3.90786 6.31037 4.18915C6.59167 4.47044 6.74969 4.85196 6.74969 5.24976Z" fill="black" fill-opacity="0.4"/>
</svg>
