<svg width="200" height="200" viewBox="0 0 200 200" fill="none" xmlns="http://www.w3.org/2000/svg">
  <rect width="200" height="200" fill="#F3F4F6"/>
  <path d="M100 70C88.9543 70 80 78.9543 80 90C80 101.046 88.9543 110 100 110C111.046 110 120 101.046 120 90C120 78.9543 111.046 70 100 70Z" fill="#D1D5DB"/>
  <path d="M140 130H60C60 113.431 73.4315 100 90 100H110C126.569 100 140 113.431 140 130Z" fill="#D1D5DB"/>
  <rect x="60" y="60" width="80" height="80" rx="8" stroke="#9CA3AF" stroke-width="2"/>
  <path d="M85 140H115M100 140V160" stroke="#9CA3AF" stroke-width="2"/>
  <path d="M70 40H130M100 40V20" stroke="#9CA3AF" stroke-width="2"/>
</svg>
