<svg width="18" height="23" viewBox="0 0 18 23" fill="none" xmlns="http://www.w3.org/2000/svg">
<path d="M17.9446 19.3805L16.6642 4.96212C16.6368 4.64202 16.367 4.39966 16.0515 4.39966H13.4174C13.381 1.99431 11.4146 0.0508209 9.00003 0.0508209C6.58556 0.0508209 4.61921 1.99431 4.58263 4.39966H1.94863C1.62853 4.39966 1.3633 4.64202 1.33587 4.96212L0.0554452 19.3805C0.0554452 19.3988 0.0508713 19.4171 0.0508713 19.4354C0.0508713 21.0771 1.55537 22.4124 3.40739 22.4124H14.5927C16.4448 22.4124 17.9492 21.0771 17.9492 19.4354C17.9492 19.4171 17.9492 19.3988 17.9446 19.3805ZM9.00003 1.2855C10.7331 1.2855 12.1462 2.67567 12.1828 4.39966H5.81731C5.8539 2.67567 7.26693 1.2855 9.00003 1.2855ZM14.5927 21.1777H3.40739C2.24587 21.1777 1.30385 20.4094 1.28556 19.4629L2.5111 5.63892H4.57805V7.51381C4.57805 7.85677 4.85243 8.13115 5.1954 8.13115C5.53837 8.13115 5.81275 7.85677 5.81275 7.51381V5.63892H12.1828V7.51381C12.1828 7.85677 12.4572 8.13115 12.8002 8.13115C13.1431 8.13115 13.4174 7.85677 13.4174 7.51381V5.63892H15.4845L16.7146 19.4629C16.6963 20.4094 15.7497 21.1777 14.5927 21.1777Z" fill="#E0DCD6" stroke="#E0DCD6" stroke-width="0.1"/>
</svg>
