<svg width="18" height="18" viewBox="0 0 18 18" fill="none" xmlns="http://www.w3.org/2000/svg">
<path d="M8.16689 9.83315L1.08515 9.83305C0.624388 9.83315 0.251994 9.46075 0.252094 9.00003C0.252094 8.5393 0.624498 8.1669 1.08515 8.1669H8.16699L8.16689 1.08515C8.16699 0.624388 8.53929 0.252095 9.00002 0.252095C9.46074 0.251984 9.83314 0.624388 9.83304 1.08515L9.83314 8.1669L16.9149 8.167C17.3756 8.1669 17.748 8.5393 17.7479 9.00003C17.748 9.22973 17.6548 9.43837 17.504 9.58922C17.3532 9.73997 17.1447 9.83315 16.9149 9.83315L9.83314 9.83305V16.9149C9.83314 17.1447 9.73996 17.3532 9.58921 17.504C9.43836 17.6548 9.22982 17.7479 9.00002 17.7479C8.53929 17.748 8.16689 17.3756 8.16699 16.9149L8.16689 9.83315Z" fill="#595959" stroke="#595959" stroke-width="0.5"/>
</svg>
