<svg width="19" height="19" viewBox="0 0 19 19" fill="none" xmlns="http://www.w3.org/2000/svg">
<path d="M16.8176 0.256757H11.9317C11.0058 0.256757 10.1355 0.617243 9.48072 1.27196L0.913787 9.83892C0.490149 10.2626 0.256757 10.8257 0.256757 11.4272C0.256757 12.0258 0.490149 12.5888 0.913787 13.0124L5.98757 18.0863C6.41121 18.5099 6.97428 18.7432 7.57585 18.7432C8.17435 18.7432 8.73743 18.5099 9.16107 18.0863L17.728 9.51931C18.3828 8.86453 18.7432 7.99411 18.7432 7.06827V2.18242C18.7432 1.121 17.879 0.256757 16.8176 0.256757ZM17.973 7.06827C17.973 7.78848 17.6926 8.46555 17.1842 8.97393L8.61651 17.5416C8.06268 18.0955 7.09138 18.0993 6.53292 17.5416L1.45838 12.4671C1.18032 12.1898 1.02702 11.8201 1.02702 11.4241C1.02702 11.0313 1.18029 10.6616 1.45838 10.3836L10.0253 1.81655C10.5352 1.30742 11.2115 1.02702 11.9317 1.02702H16.8176C17.4545 1.02702 17.973 1.5454 17.973 2.18242V7.06827Z" fill="#999999" stroke="#999999" stroke-width="0.5"/>
</svg>
