<svg width="22" height="21" viewBox="0 0 22 21" fill="none" xmlns="http://www.w3.org/2000/svg">
<path d="M15.96 0H15.9075C13.8232 0 11.9805 1.1025 10.92 2.73C9.8595 1.1025 8.01675 0 5.9325 0H5.88C2.63025 0.0315 0 2.67225 0 5.9325C0 7.875 0.8505 10.6313 2.5095 12.8993C5.67 17.22 10.92 21 10.92 21C10.92 21 16.17 17.22 19.3305 12.8993C20.9895 10.6313 21.84 7.875 21.84 5.9325C21.84 2.67225 19.2098 0.0315 15.96 0ZM18.144 12.033C15.9075 15.0938 12.5003 17.9182 10.92 19.152C9.33975 17.9182 5.9325 15.0885 3.696 12.0278C2.15775 9.92775 1.47 7.455 1.47 5.9325C1.47 4.746 1.932 3.633 2.7615 2.793C3.59625 1.953 4.704 1.48575 5.8905 1.47525H5.93775C6.6885 1.47525 7.434 1.6695 8.0955 2.04225C8.736 2.4045 9.2925 2.919 9.6915 3.5385C9.9645 3.95325 10.4265 4.20525 10.9253 4.20525C11.424 4.20525 11.886 3.95325 12.159 3.5385C12.5633 2.919 13.1145 2.4045 13.755 2.04225C14.4165 1.6695 15.162 1.47525 15.9128 1.47525H15.96C17.1412 1.48575 18.2543 1.953 19.089 2.793C19.9238 3.633 20.3805 4.75125 20.3805 5.9325C20.37 7.455 19.6823 9.92775 18.144 12.033Z" fill="black"/>
</svg>
